HIERARCHY
ROOT hip
{
	OFFSET 0.000000 0.000000 0.000000 
	CHANNELS 6 Xposition Yposition Zposition Xrotation Zrotation Yrotation
	JOINT abdomen
	{
		OFFSET 0.000000 3.402643 0.000000 
		CHANNELS 3 Xrotation Zrotation Yrotation
		JOINT chest
		{
			OFFSET 0.000000 8.438565 -0.680529 
			CHANNELS 3 Xrotation Zrotation Yrotation
			JOINT neck
			{
				OFFSET 0.000000 10.207942 -0.272212 
				CHANNELS 3 Xrotation Zrotation Yrotation
				JOINT head
				{
					OFFSET 0.000000 3.130431 0.000000 
					CHANNELS 3 Xrotation Zrotation Yrotation
					End Site
					{
						OFFSET 0.000000 3.130435 0.000000 
					}
				}
			}
			JOINT lCollar
			{
				OFFSET 3.470700 6.669187 -0.816635 
				CHANNELS 3 Yrotation Zrotation Xrotation
				JOINT lShldr
				{
					OFFSET 3.198488 0.000000 0.000000 
					CHANNELS 3 Zrotation Yrotation Xrotation
					JOINT lForeArm
					{
						OFFSET 10.139888 0.000000 0.000000 
						CHANNELS 3 Yrotation Zrotation Xrotation
						JOINT lHand
						{
							OFFSET 8.370511 0.000000 0.000000 
							CHANNELS 3 Zrotation Yrotation Xrotation
							End Site
							{
								OFFSET 4.083176 0.000000 0.000000 
							}
						}
					}
				}
			}
			JOINT rCollar
			{
				OFFSET -3.470700 6.669187 -0.816635 
				CHANNELS 3 Yrotation Zrotation Xrotation
				JOINT rShldr
				{
					OFFSET -3.198488 0.000000 0.000000 
					CHANNELS 3 Zrotation Yrotation Xrotation
					JOINT rForeArm
					{
						OFFSET -10.139888 0.000000 0.000000 
						CHANNELS 3 Yrotation Zrotation Xrotation
						JOINT rHand
						{
							OFFSET -8.370511 0.000000 0.000000 
							CHANNELS 3 Zrotation Yrotation Xrotation
							End Site
							{
								OFFSET -4.083176 0.000000 0.000000 
							}
						}
					}
				}
			}
		}
	}
	JOINT lThigh
	{
		OFFSET 5.308129 -1.633274 1.361059 
		CHANNELS 3 Xrotation Zrotation Yrotation
		JOINT lShin
		{
			OFFSET -2.041588 -20.007561 0.000000 
			CHANNELS 3 Xrotation Zrotation Yrotation
			JOINT lFoot
			{
				OFFSET 0.000000 -19.190928 -1.224953 
				CHANNELS 3 Xrotation Yrotation Zrotation
				End Site
				{
					OFFSET 0.000000 -2.449906 4.627600 
				}
			}
		}
	}
	JOINT rThigh
	{
		OFFSET -5.308129 -1.633274 1.361059 
		CHANNELS 3 Xrotation Zrotation Yrotation
		JOINT rShin
		{
			OFFSET 2.041588 -20.007561 0.000000 
			CHANNELS 3 Xrotation Zrotation Yrotation
			JOINT rFoot
			{
				OFFSET 0.000000 -19.190928 -1.224953 
				CHANNELS 3 Xrotation Yrotation Zrotation
				End Site
				{
					OFFSET 0.000000 -2.449906 4.627600 
				}
			}
		}
	}
}
MOTION
Frames: 6
Frame Time: 0.033333
-0.951610 45.524303 -1.613031 2.264089 0.222887 7.099669 0.000000 0.000000 0.000000 2.422544 -1.563549 6.037165 27.083187 4.189433 0.176739 -1.023426 -4.316137 -13.770875 -0.993833 26.531784 24.988825 -118.256203 -39.451988 6.091462 -38.267288 -17.998350 32.222752 -5.825636 7.272235 50.104923 -21.325857 -16.036116 18.004560 67.250916 13.847897 68.109444 21.465298 -17.161024 -23.229298 24.251936 -10.079735 -11.182567 8.240464 5.175720 18.792122 57.140236 -9.033943 -4.555952 -10.289530 28.937016 -29.552521 -28.655441 -2.988002 1.349754 44.748066 8.348478 4.947067 -9.089369 -15.134684 28.250633 
-1.285688 45.580273 -1.424215 1.969807 -0.709325 5.732827 0.000000 0.000000 0.000000 2.572752 -0.135878 6.357427 27.153669 3.066402 0.098039 -0.951425 -4.172265 -12.749500 0.184076 25.993950 24.433064 -116.982933 -37.235561 5.319458 -34.523731 -14.507933 30.705717 -1.711001 8.134116 50.873661 -20.237200 -16.451323 18.210520 68.549332 14.673483 68.707260 21.018259 -17.628920 -22.921673 24.729916 -9.966585 -11.061759 5.526950 8.144910 19.935450 64.258675 -6.919868 -4.331570 -0.495560 26.148703 -30.811804 -27.046473 -0.976731 1.856879 46.160862 8.063288 5.050623 -11.568464 -14.430486 27.652451 
-1.581264 45.650265 -1.350370 1.559347 -1.461372 3.946518 0.000000 0.000000 0.000000 3.104642 1.328834 6.671744 27.177071 1.298828 -0.029289 -0.927769 -3.935085 -11.374832 1.930496 24.947350 23.644909 -114.467690 -34.506920 3.879408 -31.656128 -11.333292 28.971388 2.233785 10.173178 51.695278 -18.652950 -17.517818 18.353292 70.138947 15.819977 69.400436 20.440914 -18.358442 -21.795403 25.421293 -8.760014 -10.809443 1.256622 11.380135 21.134884 71.967117 -3.860878 -3.851128 9.857965 21.013041 -28.913679 -24.981327 0.731537 2.266736 47.060307 7.868083 5.102788 -14.016165 -13.346467 28.288866 
-1.792950 45.754417 -1.386182 1.024251 -1.903360 1.797829 0.000000 0.000000 0.000000 3.967463 2.665837 6.951252 27.307718 -0.888667 -0.195440 -1.070024 -3.764597 -9.640505 4.180984 23.467089 22.736761 -111.144371 -31.265272 2.023802 -29.477457 -9.052176 26.770237 7.472826 12.838450 53.250607 -16.708416 -18.841963 18.606565 71.439598 17.386662 69.828583 20.045818 -18.799295 -21.104456 25.522966 -8.142454 -10.655812 -3.506603 14.467596 22.211679 78.325409 -0.844791 -3.306827 18.385824 14.484410 -26.211666 -22.358198 1.864267 2.493345 47.282406 7.672113 5.078550 -16.056126 -11.566217 30.165661 
-1.933750 45.907822 -1.490019 0.257753 -2.050778 -0.107703 0.000000 0.000000 0.000000 5.188363 3.614459 7.133842 27.419136 -2.812450 -0.342344 -1.218406 -3.703979 -7.995808 6.198325 22.135946 22.010580 -107.877975 -27.582636 0.208200 -28.071640 -8.088640 23.315340 15.774332 13.811480 55.995728 -14.898479 -19.776567 18.997765 71.969742 19.139174 69.748787 19.707375 -18.854753 -20.675644 25.156704 -7.966080 -10.592673 -8.163839 16.897779 22.904900 82.588356 1.495257 -2.834518 21.118570 10.145427 -24.559643 -19.405350 2.302948 2.501796 47.246651 7.477220 4.994249 -18.053089 -9.594790 31.497335 
-2.057008 46.104618 -1.655072 -0.595512 -2.245048 -1.749765 0.000000 0.000000 0.000000 6.569408 4.417393 7.277812 27.464811 -4.316279 -0.441146 -1.270164 -3.560541 -6.565503 7.975842 21.303156 21.398520 -105.018738 -23.148975 -1.404469 -27.530819 -7.756301 20.517939 24.936102 12.189431 58.313171 -13.252498 -20.359182 19.472057 72.050896 21.148039 69.361763 18.982918 -18.480366 -20.214188 24.633507 -7.638947 -10.548441 -13.035691 18.870108 23.281876 84.620216 3.105992 -2.509161 19.437645 9.680534 -23.504065 -16.288134 2.715310 2.481775 46.868820 7.042655 4.856891 -19.768177 -7.848504 32.241730 
